<svg id="svg" version="1.1" xmlns="http://www.w3.org/2000/svg" viewBox="0 0 512 512" style="display: block;"><path d="M0 0 C168.96 0 337.92 0 512 0 C512 168.96 512 337.92 512 512 C343.04 512 174.08 512 0 512 C0 343.04 0 174.08 0 0 Z " transform="translate(0,0)" style="fill: #000000;"/><path d="M0 0 C3.13132944 0.01908402 6.26259921 0.02315251 9.39397907 0.02671432 C13.20658675 0.03192944 17.01914565 0.04637505 20.83172607 0.06115723 C21.8764379 0.06397831 21.8764379 0.06397831 22.94225502 0.06685638 C37.37893603 0.1173079 51.83449825 0.53227495 66.09344482 2.95178223 C67.61723755 3.21015869 67.61723755 3.21015869 69.17181396 3.47375488 C89.13511808 7.09712854 106.24692454 16.07327789 118.44500732 32.79553223 C132.71360997 55.00675605 134.68474356 84.6915598 129.28094482 110.01428223 C127.81657158 116.18675111 126.20829588 122.73729342 123.03094482 128.26428223 C116.38692148 131.5862939 105.87307591 129.21017319 98.59344482 128.51428223 C97.83676514 128.45264893 97.08008545 128.39101563 96.30047607 128.32751465 C91.15226392 127.778121 88.11968566 126.45233372 84.03094482 123.26428223 C84.59488195 119.00968994 85.65340567 115.6051649 87.40594482 111.70178223 C94.52560809 93.49786187 94.72192439 74.12052813 87.44500732 55.99865723 C83.8110506 48.97166909 79.32388623 45.89482079 72.03094482 43.26428223 C63.75504072 41.18672124 55.38996028 40.13265156 46.87078857 39.69787598 C46.07575928 39.65716476 45.28072998 39.61645355 44.46160889 39.57450867 C32.84205436 39.04821647 21.2084055 39.07716532 9.57928467 39.07897949 C6.88032355 39.07906093 4.18153154 39.07207177 1.48260498 39.05847168 C-32.60544563 37.3697287 -32.60544563 37.3697287 -63.32452393 49.50646973 C-74.89586909 61.87489092 -74.52300082 79.79450222 -74.10968018 95.57043457 C-73.5997382 105.33901052 -70.13321824 116.29374519 -62.96905518 123.26428223 C-49.66042766 130.8614043 -35.41434343 131.43761015 -20.48077393 131.25646973 C-17.89288712 131.23896914 -15.30499625 131.22205937 -12.71710205 131.20568848 C-8.67036838 131.17587848 -4.62378114 131.13989655 -0.57720947 131.09289551 C3.35070914 131.04798842 7.27860364 131.02715325 11.20672607 131.00646973 C13.02397942 130.97853836 13.02397942 130.97853836 14.87794495 130.95004272 C16.57076851 130.9448613 16.57076851 130.9448613 18.29779053 130.9395752 C19.78143852 130.92505814 19.78143852 130.92505814 21.2950592 130.9102478 C24.5604948 131.33280809 26.38400233 132.33180599 29.03094482 134.26428223 C30.70202538 136.44932537 32.22082289 138.59426874 33.71844482 140.88928223 C39.05381191 148.70232404 45.24018422 154.75579749 53.09344482 160.07678223 C56.1794838 162.37489636 56.43252418 162.74024955 57.03094482 166.26428223 C55.0746777 166.75181588 53.1157802 167.22879655 51.15594482 167.70178223 C50.06539795 167.96861816 48.97485107 168.2354541 47.85125732 168.51037598 C39.77992012 170.10318588 31.65701407 170.43057036 23.44891357 170.58068848 C21.98485832 170.61186012 21.98485832 170.61186012 20.4912262 170.6436615 C18.43996899 170.68660663 16.3886719 170.72768388 14.33734131 170.76696777 C11.23706399 170.82642515 8.13694571 170.89151377 5.0368042 170.9576416 C-42.63674512 171.95091541 -42.63674512 171.95091541 -64.96905518 165.26428223 C-66.27974102 164.88749634 -67.59093205 164.51246289 -68.90264893 164.13928223 C-70.42052002 163.70615723 -70.42052002 163.70615723 -71.96905518 163.26428223 C-71.96905518 162.60428223 -71.96905518 161.94428223 -71.96905518 161.26428223 C-73.28905518 161.26428223 -74.60905518 161.26428223 -75.96905518 161.26428223 C-75.96905518 160.60428223 -75.96905518 159.94428223 -75.96905518 159.26428223 C-76.50530518 159.18178223 -77.04155518 159.09928223 -77.59405518 159.01428223 C-82.64862777 157.41810141 -87.03025141 153.73969732 -90.96905518 150.26428223 C-90.96905518 149.60428223 -90.96905518 148.94428223 -90.96905518 148.26428223 C-91.95905518 147.93428223 -92.94905518 147.60428223 -93.96905518 147.26428223 C-96.96905518 143.81983778 -96.96905518 143.81983778 -96.96905518 141.26428223 C-97.62905518 141.26428223 -98.28905518 141.26428223 -98.96905518 141.26428223 C-111.60848258 117.08984341 -116.91579225 92.42219634 -111.96905518 65.26428223 C-111.84659424 64.41221191 -111.7241333 63.5601416 -111.59796143 62.68225098 C-108.59025973 43.9848889 -98.69444358 27.76372792 -84.04718018 15.89709473 C-59.43321617 -1.3587266 -28.70848635 -0.20852714 0 0 Z " transform="translate(172.96905517578125,144.7357177734375)" style="fill: #4C4C4D;"/><path d="M0 0 C1.01172272 -0.0098568 1.01172272 -0.0098568 2.04388428 -0.01991272 C4.26045901 -0.03949513 6.47696579 -0.05128716 8.69360352 -0.0612793 C9.46260546 -0.06535482 10.2316074 -0.06943035 11.02391243 -0.07362938 C15.1105026 -0.09444676 19.19705983 -0.10875573 23.28369141 -0.11816406 C26.61265838 -0.12694188 29.9411967 -0.14762411 33.27001953 -0.1796875 C95.33599668 -0.76459552 95.33599668 -0.76459552 118.88500977 18.17700195 C118.88500977 18.83700195 118.88500977 19.49700195 118.88500977 20.17700195 C119.46637695 20.4193457 120.04774414 20.66168945 120.64672852 20.91137695 C130.05185075 26.22945654 135.95462037 39.83429393 138.95141602 49.6809082 C146.10229197 79.49349734 143.04035858 109.66510005 127.31469727 136.3137207 C125.88500977 138.17700195 125.88500977 138.17700195 122.88500977 139.17700195 C122.88500977 140.16700195 122.88500977 141.15700195 122.88500977 142.17700195 C122.22500977 142.17700195 121.56500977 142.17700195 120.88500977 142.17700195 C120.55500977 143.16700195 120.22500977 144.15700195 119.88500977 145.17700195 C119.22500977 145.17700195 118.56500977 145.17700195 117.88500977 145.17700195 C117.88500977 145.83700195 117.88500977 146.49700195 117.88500977 147.17700195 C102.65532246 160.25027335 83.41721097 164.77220158 63.88110352 166.2980957 C62.82356873 166.38085251 61.76603394 166.46360931 60.67645264 166.5488739 C46.88087449 167.51742228 33.06812305 167.51525774 19.24536133 167.49267578 C16.16448463 167.48802016 13.08400044 167.49507732 10.00317383 167.51318359 C-52.11811272 167.87478713 -52.11811272 167.87478713 -75.11499023 145.17700195 C-85.50448504 133.32625087 -91.25816033 119.63265724 -94.11499023 104.17700195 C-94.28699951 103.24799072 -94.45900879 102.31897949 -94.63623047 101.36181641 C-97.44447418 82.6807663 -97.00102919 56.50606039 -86.11499023 40.17700195 C-79.24935871 39.03681672 -71.76520157 40.29734232 -64.86499023 40.98950195 C-64.12120117 41.05935303 -63.37741211 41.1292041 -62.61108398 41.20117188 C-57.37554543 41.7852878 -52.98551515 43.16598205 -48.11499023 45.17700195 C-48.8568974 50.74547368 -50.71217863 55.41025411 -52.86108398 60.56762695 C-55.792552 69.00587133 -56.47487065 77.16004069 -56.42749023 86.05200195 C-56.42402588 87.10758301 -56.42056152 88.16316406 -56.41699219 89.25073242 C-56.28009063 99.0425976 -55.08197979 107.53875924 -50.11499023 116.17700195 C-49.82624023 116.91950195 -49.53749023 117.66200195 -49.23999023 118.42700195 C-47.64629157 120.90608877 -45.86095645 121.21910676 -43.11499023 122.17700195 C-42.36217773 122.65782227 -41.60936523 123.13864258 -40.83374023 123.6340332 C-32.21423691 128.52584902 -21.0929736 128.43810421 -11.41186523 128.77856445 C-10.28599503 128.81943176 -9.16012482 128.86029907 -8.00013733 128.90240479 C4.23446728 129.29470219 16.45564957 129.20592709 28.69287109 128.98999023 C32.47626517 128.92651955 36.25951052 128.88540164 40.04321289 128.8449707 C68.52703943 129.13747011 68.52703943 129.13747011 93.35766602 117.0637207 C96.46974119 113.21939254 98.16969263 108.77430413 99.88500977 104.17700195 C100.19438477 103.37133789 100.50375977 102.56567383 100.82250977 101.7355957 C105.91609578 86.87114037 105.34605255 68.49101636 98.88500977 54.17700195 C95.20099012 47.23626276 90.22290796 43.78933619 82.88500977 41.17700195 C71.4384988 38.12683358 59.38180163 38.04804511 47.61938477 38.24731445 C45.32512647 38.25820329 43.03085132 38.26592286 40.73657227 38.27075195 C37.17146358 38.27863282 33.61048822 38.30252908 30.04614258 38.37915039 C9.00394732 38.80057159 9.00394732 38.80057159 4.60839844 34.80859375 C2.54930741 31.98609101 1.21342387 29.39465377 -0.11499023 26.17700195 C-1.13756358 24.66995715 -2.19353611 23.18416836 -3.30249023 21.73950195 C-3.77299805 21.10915039 -4.24350586 20.47879883 -4.72827148 19.8293457 C-6.59607878 17.60376124 -8.81489315 15.93589973 -11.11499023 14.17700195 C-11.11499023 13.51700195 -11.11499023 12.85700195 -11.11499023 12.17700195 C-11.67186523 11.92950195 -12.22874023 11.68200195 -12.80249023 11.42700195 C-15.55659502 9.93829666 -17.80673538 8.29290224 -20.11499023 6.17700195 C-20.11499023 5.18700195 -20.11499023 4.19700195 -20.11499023 3.17700195 C-13.4425717 0.73587322 -7.0759512 0.05762007 0 0 Z " transform="translate(292.114990234375,146.822998046875)" style="fill: #535455;"/><path d="M0 0 C0.70339508 -0.00175232 1.40679016 -0.00350464 2.13150024 -0.00531006 C4.43461646 -0.00967729 6.73765462 -0.0068091 9.04077148 -0.00341797 C10.65307123 -0.00409241 12.26537088 -0.0050636 13.87767029 -0.00631714 C17.24739556 -0.0077871 20.61709424 -0.00566188 23.98681641 -0.00097656 C28.29630173 0.00472489 32.60572481 0.00143463 36.91520786 -0.00454903 C40.24127162 -0.00816968 43.56732072 -0.00700921 46.89338493 -0.00442123 C48.48213648 -0.00375637 50.07088939 -0.00456493 51.65963936 -0.00690079 C53.88250357 -0.00945256 56.10526817 -0.00555148 58.328125 0 C60.22172508 0.00119339 60.22172508 0.00119339 62.15357971 0.00241089 C65.39280386 0.12178236 68.42056206 0.51510856 71.59936523 1.12939453 C71.59936523 1.45939453 71.59936523 1.78939453 71.59936523 2.12939453 C70.2520507 2.14152481 70.2520507 2.14152481 68.8775177 2.15390015 C60.36080312 2.23224646 51.84423808 2.31965353 43.32771778 2.41692162 C38.95060631 2.46660199 34.57351574 2.51293141 30.19628906 2.55126953 C25.96215493 2.58848323 21.72820879 2.63493418 17.4942379 2.68745804 C15.88897733 2.7058124 14.28367676 2.72098808 12.67835426 2.73273849 C3.11707466 2.80514645 -5.9784642 3.34240114 -15.40063477 5.12939453 C-12.59837297 8.01922701 -9.74845481 10.68320389 -6.65063477 13.25439453 C-0.22616158 18.81333148 5.54848086 25.6410089 9.59936523 33.12939453 C9.59936523 33.78939453 9.59936523 34.44939453 9.59936523 35.12939453 C10.15630066 35.12495331 10.71323608 35.12051208 11.28704834 35.11593628 C17.19418718 35.07096569 23.10127587 35.04123 29.00854492 35.01953125 C31.19997133 35.00960225 33.39138496 34.9960546 35.58276367 34.97851562 C85.86083009 34.58679833 85.86083009 34.58679833 98.28295898 45.62548828 C109.61872046 57.86584917 109.38417512 74.52776121 108.79907227 90.20068359 C108.02685291 101.52530883 104.86192697 113.54893998 96.28686523 121.44189453 C81.36657003 133.00751951 61.66501238 132.28889835 43.68139648 132.29736328 C42.05392937 132.3005865 40.42646252 132.30395132 38.79899597 132.30744934 C35.40098399 132.31340417 32.00299729 132.31529306 28.60498047 132.31469727 C24.29654883 132.31459595 19.98828311 132.32823332 15.67989063 132.34546947 C12.32082913 132.35670629 8.96180624 132.35861292 5.60272789 132.35808754 C4.01665362 132.35925073 2.43057778 132.36357633 0.84452248 132.37141991 C-33.95138602 132.52738096 -33.95138602 132.52738096 -47.40063477 123.12939453 C-47.73063477 122.13939453 -48.06063477 121.14939453 -48.40063477 120.12939453 C-45.78330375 121.10154605 -43.46535348 122.08775809 -41.11157227 123.60205078 C-32.47597358 128.46735206 -21.38203639 128.39037658 -11.69750977 128.73095703 C-10.57163956 128.77182434 -9.44576935 128.81269165 -8.28578186 128.85479736 C3.94882275 129.24709477 16.17000504 129.15831967 28.40722656 128.94238281 C32.19062064 128.87891213 35.97386599 128.83779422 39.75756836 128.79736328 C68.2413949 129.08986269 68.2413949 129.08986269 93.07202148 117.01611328 C96.18409666 113.17178512 97.8840481 108.72669671 99.59936523 104.12939453 C99.90874023 103.32373047 100.21811523 102.51806641 100.53686523 101.68798828 C105.63045125 86.82353295 105.06040802 68.44340894 98.59936523 54.12939453 C94.91534559 47.18865533 89.93726343 43.74172877 82.59936523 41.12939453 C71.15285427 38.07922616 59.0961571 38.00043769 47.33374023 38.19970703 C45.03948194 38.21059586 42.74520679 38.21831544 40.45092773 38.22314453 C36.88581905 38.2310254 33.32484369 38.25492166 29.76049805 38.33154297 C8.71830279 38.75296416 8.71830279 38.75296416 4.32275391 34.76098633 C2.26366288 31.93848359 0.92777934 29.34704634 -0.40063477 26.12939453 C-1.42320811 24.62234973 -2.47918064 23.13656094 -3.58813477 21.69189453 C-4.05864258 21.06154297 -4.52915039 20.43119141 -5.01391602 19.78173828 C-6.88172331 17.55615382 -9.10053768 15.8882923 -11.40063477 14.12939453 C-11.40063477 13.46939453 -11.40063477 12.80939453 -11.40063477 12.12939453 C-11.95750977 11.88189453 -12.51438477 11.63439453 -13.08813477 11.37939453 C-15.84223955 9.89068924 -18.09237991 8.24529482 -20.40063477 6.12939453 C-20.40063477 5.13939453 -20.40063477 4.14939453 -20.40063477 3.12939453 C-13.61757135 0.64778596 -7.19317708 0.00453045 0 0 Z " transform="translate(292.400634765625,146.87060546875)" style="fill: #9B9C9C;"/><path d="M0 0 C9.25036368 9.25036368 8.75872512 31.200132 9.01123047 43.75097656 C8.91836476 62.34834476 3.44244818 84.08730114 -8 99 C-8.99 99.33 -9.98 99.66 -11 100 C-11 100.99 -11 101.98 -11 103 C-11.66 103 -12.32 103 -13 103 C-13.33 103.99 -13.66 104.98 -14 106 C-14.66 106 -15.32 106 -16 106 C-16 106.66 -16 107.32 -16 108 C-31.2296873 121.0732714 -50.4677988 125.59519962 -70.00390625 127.12109375 C-71.59020844 127.24522896 -71.59020844 127.24522896 -73.20855713 127.37187195 C-87.00413528 128.34042033 -100.81688671 128.33825579 -114.63964844 128.31567383 C-117.72052514 128.31101821 -120.80100932 128.31807537 -123.88183594 128.33618164 C-186.00312249 128.69778517 -186.00312249 128.69778517 -209 106 C-219.3894948 94.14924891 -225.1431701 80.45565529 -228 65 C-228.17200928 64.07098877 -228.34401855 63.14197754 -228.52124023 62.18481445 C-231.32948395 43.50376435 -230.88603896 17.32905844 -220 1 C-213.08370594 -0.14859884 -205.56786839 1.1468213 -198.625 1.875 C-197.48417969 1.99234497 -197.48417969 1.99234497 -196.3203125 2.11206055 C-191.98226222 2.61087905 -188.11324103 3.44610895 -184 5 C-187.68393162 6.22797721 -189.85568798 5.71952131 -193.6875 5.125 C-201.77211166 3.93210628 -209.84295185 3.40731646 -218 3 C-226.8939835 30.94350845 -229.55029351 62.55983838 -216.75390625 89.8203125 C-207.83044733 105.99780818 -195.00739779 115.50514921 -177.625 121.25 C-164.55758885 124.90373184 -151.74846006 125.3132608 -138.29296875 125.30078125 C-136.51524254 125.30468195 -134.73751724 125.30901937 -132.95979309 125.31376648 C-129.25433313 125.32117581 -125.54896853 125.32097634 -121.84350586 125.31567383 C-117.14394383 125.30988832 -112.4447771 125.32681411 -107.74528027 125.3500185 C-104.07906391 125.36489974 -100.4129396 125.36560818 -96.74669838 125.36250877 C-95.01631196 125.36301486 -93.28591937 125.36811498 -91.55556297 125.37832069 C-80.03495133 125.43794741 -69.27578944 124.36823011 -58 122 C-56.57369514 121.71211357 -56.57369514 121.71211357 -55.11857605 121.41841125 C-47.08049841 119.77563803 -39.28013963 117.88563008 -32 114 C-31.2678125 113.64292969 -30.535625 113.28585937 -29.78125 112.91796875 C-15.28911922 105.49819631 -5.48996108 92.30846864 -0.33447266 77.02734375 C1.04680245 72.4027306 2.05744458 67.73172296 3 63 C3.22558594 61.92878906 3.45117188 60.85757813 3.68359375 59.75390625 C6.26609963 45.20282137 7.88279441 25.84186919 2 12 C0.67147709 7.86681761 -0.26373848 4.35168493 0 0 Z " transform="translate(426,186)" style="fill: #8C8E8E;"/><path d="M0 0 C1.0459562 -0.00424107 1.0459562 -0.00424107 2.11304283 -0.00856781 C5.81063568 -0.02343389 9.50819086 -0.03273991 13.20581055 -0.03710938 C16.20268073 -0.04147116 19.19925932 -0.05529141 22.19604492 -0.078125 C36.6324861 -0.18564848 51.00843575 -0.26054783 65.3671875 1.46875 C66.74871758 1.63126251 66.74871758 1.63126251 68.15815735 1.79705811 C79.47830168 3.37643341 90.15671608 7.08587695 97.53515625 16.1640625 C106.34161597 29.14985904 107.02705374 48.57829582 104.1953125 63.59375 C102.30114242 72.0772567 99.26280714 80.19744624 95.91796875 88.203125 C106.98896829 89.62345942 117.74987347 90.4996231 128.91796875 90.203125 C139.23757266 70.29729005 136.25341454 44.89872637 135.91796875 23.203125 C144.05704083 38.03560805 139.90160131 64.64319504 135.49121094 80.30419922 C132.98420983 88.60890733 132.98420983 88.60890733 130.91796875 92.203125 C124.27394541 95.52513667 113.76009984 93.14901596 106.48046875 92.453125 C105.34544922 92.36067505 105.34544922 92.36067505 104.1875 92.26635742 C99.03928784 91.71696377 96.00670959 90.39117649 91.91796875 87.203125 C92.48190587 82.94853271 93.54042959 79.54400767 95.29296875 75.640625 C102.41263201 57.43670465 102.60894832 38.0593709 95.33203125 19.9375 C91.69807453 12.91051186 87.21091016 9.83366357 79.91796875 7.203125 C71.64206465 5.12556401 63.27698421 4.07149434 54.7578125 3.63671875 C53.9627832 3.59600754 53.16775391 3.55529633 52.34863281 3.51335144 C40.72907829 2.98705924 29.09542943 3.01600809 17.46630859 3.01782227 C14.76734747 3.0179037 12.06855547 3.01091455 9.36962891 2.99731445 C-24.7184217 1.30857147 -24.7184217 1.30857147 -55.4375 13.4453125 C-63.52680849 22.09184177 -66.2304399 34.66276954 -66.1796875 46.1328125 C-66.17646484 47.421875 -66.17324219 48.7109375 -66.16992188 50.0390625 C-66.16156858 51.38541736 -66.15310366 52.73177152 -66.14453125 54.078125 C-66.13950955 55.44791504 -66.13494782 56.81770685 -66.13085938 58.1875 C-66.11910379 61.5260869 -66.10267089 64.86458315 -66.08203125 68.203125 C-66.74203125 67.873125 -67.40203125 67.543125 -68.08203125 67.203125 C-71.8065513 52.35310311 -70.38877089 32.18234769 -62.89453125 18.703125 C-55.67363983 8.75238438 -46.68782949 4.0091791 -34.76953125 2.015625 C-23.23274218 0.36751228 -11.63664653 0.03262161 0 0 Z " transform="translate(165.08203125,180.796875)" style="fill: #A5A6A6;"/><path d="M0 0 C0 0.66 0 1.32 0 2 C-2.85958388 2.95319463 -5.45801656 3.30045624 -8.44360352 3.59423828 C-30.9506298 5.8462004 -51.83515882 11.87075445 -67.1875 29.5625 C-79.23240021 45.47636815 -83.17722761 65.01415066 -83.1875 84.5625 C-83.19974609 85.76197266 -83.21199219 86.96144531 -83.22460938 88.19726562 C-83.26010298 110.12048107 -78.06246722 131.35067015 -62.6328125 147.6171875 C-42.31915351 166.00195305 -15.02311746 168.23340874 11.1875 168.125 C13.02235962 168.11992432 13.02235962 168.11992432 14.89428711 168.11474609 C37.28356858 167.99404916 59.76546177 167.84491607 82 165 C82.33 164.01 82.66 163.02 83 162 C83.33 163.32 83.66 164.64 84 166 C82.04373287 166.48753366 80.08483537 166.96451433 78.125 167.4375 C77.03445312 167.70433594 75.94390625 167.97117187 74.8203125 168.24609375 C66.74897529 169.83890365 58.62606925 170.16628813 50.41796875 170.31640625 C48.9539135 170.3475779 48.9539135 170.3475779 47.46028137 170.37937927 C45.40902417 170.4223244 43.35772707 170.46340165 41.30639648 170.50268555 C38.20611917 170.56214292 35.10600089 170.62723154 32.00585938 170.69335938 C-15.66768995 171.68663319 -15.66768995 171.68663319 -38 165 C-39.31068584 164.62321411 -40.62187687 164.24818066 -41.93359375 163.875 C-43.45146484 163.441875 -43.45146484 163.441875 -45 163 C-45 162.34 -45 161.68 -45 161 C-46.32 161 -47.64 161 -49 161 C-49 160.34 -49 159.68 -49 159 C-49.53625 158.9175 -50.0725 158.835 -50.625 158.75 C-55.67957259 157.15381918 -60.06119623 153.47541509 -64 150 C-64 149.34 -64 148.68 -64 148 C-64.99 147.67 -65.98 147.34 -67 147 C-70 143.55555556 -70 143.55555556 -70 141 C-70.66 141 -71.32 141 -72 141 C-84.6394274 116.82556119 -89.94673707 92.15791411 -85 65 C-84.87753906 64.14792969 -84.75507812 63.29585937 -84.62890625 62.41796875 C-81.62120456 43.72060667 -71.72538841 27.49944569 -57.078125 15.6328125 C-44.99185833 7.15963613 -31.41244997 3.27271919 -16.9375 1.375 C-15.48633789 1.17390625 -15.48633789 1.17390625 -14.00585938 0.96875 C-9.30474419 0.33807336 -4.75580222 -0.17643786 0 0 Z " transform="translate(146,145)" style="fill: #C0C0C0;"/><path d="M0 0 C9.25036368 9.25036368 8.75872512 31.200132 9.01123047 43.75097656 C8.91836476 62.34834476 3.44244818 84.08730114 -8 99 C-8.99 99.33 -9.98 99.66 -11 100 C-11 100.99 -11 101.98 -11 103 C-11.66 103 -12.32 103 -13 103 C-13.495 104.485 -13.495 104.485 -14 106 C-14.66 106 -15.32 106 -16 106 C-16 106.66 -16 107.32 -16 108 C-28.91270747 119.08435951 -45.01073809 124.61779134 -62 124 C-58.20209495 121.74717443 -54.07509789 121.03649601 -49.8125 120.125 C-43.49159074 118.70012837 -37.7457999 117.06670669 -32 114 C-31.2678125 113.64292969 -30.535625 113.28585937 -29.78125 112.91796875 C-15.28911922 105.49819631 -5.48996108 92.30846864 -0.33447266 77.02734375 C1.04680245 72.4027306 2.05744458 67.73172296 3 63 C3.22558594 61.92878906 3.45117188 60.85757813 3.68359375 59.75390625 C6.26609963 45.20282137 7.88279441 25.84186919 2 12 C0.67147709 7.86681761 -0.26373848 4.35168493 0 0 Z " transform="translate(426,186)" style="fill: #888D8C;"/><path d="M0 0 C8.13907208 14.83248305 3.98363256 41.44007004 -0.42675781 57.10107422 C-2.93375892 65.40578233 -2.93375892 65.40578233 -5 69 C-11.64402334 72.32201167 -22.15786891 69.94589096 -29.4375 69.25 C-30.57251953 69.15755005 -30.57251953 69.15755005 -31.73046875 69.06323242 C-36.87868091 68.51383877 -39.91125916 67.18805149 -44 64 C-43.40758801 59.60298655 -42.29337064 55.85520291 -40.625 51.75 C-38.68639952 46.85867567 -37.00343294 41.98893911 -35.578125 36.92578125 C-35 35 -35 35 -34 33 C-33.01 33 -32.02 33 -31 33 C-31.8990418 41.19872447 -33.61925079 48.40191272 -36.78125 56.02734375 C-37.99308309 58.98312894 -39.02140226 61.96000423 -40 65 C-28.92900046 66.42033442 -18.16809528 67.2964981 -7 67 C3.31960391 47.09416505 0.33544579 21.69560137 0 0 Z " transform="translate(301,204)" style="fill: #8E8F8F;"/><path d="M0 0 C0 0.66 0 1.32 0 2 C-2.85958388 2.95319463 -5.45801656 3.30045624 -8.44360352 3.59423828 C-30.9506298 5.8462004 -51.83515882 11.87075445 -67.1875 29.5625 C-77.21610975 42.81242076 -82.69525591 60.33108548 -83.31640625 76.8359375 C-83.35830078 77.89941406 -83.40019531 78.96289062 -83.44335938 80.05859375 C-83.48267578 81.15300781 -83.52199219 82.24742187 -83.5625 83.375 C-83.60568359 84.49261719 -83.64886719 85.61023438 -83.69335938 86.76171875 C-83.79897411 89.50770199 -83.9010797 92.25376881 -84 95 C-84.99 95.495 -84.99 95.495 -86 96 C-87.04382644 85.26551459 -86.86360758 75.67563285 -85 65 C-84.87753906 64.14277344 -84.75507812 63.28554687 -84.62890625 62.40234375 C-81.60175016 43.70887471 -71.72815718 27.50168884 -57.078125 15.6328125 C-44.99185833 7.15963613 -31.41244997 3.27271919 -16.9375 1.375 C-15.48633789 1.17390625 -15.48633789 1.17390625 -14.00585938 0.96875 C-9.30474419 0.33807336 -4.75580222 -0.17643786 0 0 Z " transform="translate(146,145)" style="fill: #9FA0A0;"/><path d="M0 0 C1.06990273 2.12508202 2.12224807 4.25572301 3.1484375 6.40234375 C8.01833828 16.46783931 12.02005329 20.14548806 22.45703125 23.87890625 C32.64453773 27.19987293 42.85690236 27.12114344 53.48828125 26.9921875 C56.07616806 26.97468691 58.66405892 26.95777715 61.25195312 26.94140625 C65.29868679 26.91159625 69.34527404 26.87561432 73.3918457 26.82861328 C77.31976431 26.7837062 81.24765881 26.76287102 85.17578125 26.7421875 C86.99303459 26.71425613 86.99303459 26.71425613 88.84700012 26.6857605 C90.53982368 26.68057907 90.53982368 26.68057907 92.2668457 26.67529297 C93.25594437 26.66561493 94.24504303 26.65593689 95.26411438 26.64596558 C98.47992967 27.0621048 100.38567929 28.11744769 103 30 C103 30.33 103 30.66 103 31 C94.93180105 31.07014396 86.86373383 31.12313265 78.79530334 31.15543652 C75.04701816 31.17095673 71.29894466 31.19193817 67.55078125 31.22631836 C63.91972843 31.2594081 60.28887652 31.27695492 56.65768433 31.28463173 C54.62857423 31.29270583 52.59954265 31.31604109 50.57055664 31.33988953 C35.91271163 31.3424841 19.56256118 29.93572654 8.33203125 19.52734375 C2.1365383 12.83936329 -0.30154341 9.04630233 0 0 Z " transform="translate(99,249)" style="fill: #929393;"/><path d="M0 0 C0.70339508 -0.00175232 1.40679016 -0.00350464 2.13150024 -0.00531006 C4.43461646 -0.00967729 6.73765462 -0.0068091 9.04077148 -0.00341797 C10.65307123 -0.00409241 12.26537088 -0.0050636 13.87767029 -0.00631714 C17.24739556 -0.0077871 20.61709424 -0.00566188 23.98681641 -0.00097656 C28.29630173 0.00472489 32.60572481 0.00143463 36.91520786 -0.00454903 C40.24127162 -0.00816968 43.56732072 -0.00700921 46.89338493 -0.00442123 C48.48213648 -0.00375637 50.07088939 -0.00456493 51.65963936 -0.00690079 C53.88250357 -0.00945256 56.10526817 -0.00555148 58.328125 0 C60.22172508 0.00119339 60.22172508 0.00119339 62.15357971 0.00241089 C65.39280386 0.12178236 68.42056206 0.51510856 71.59936523 1.12939453 C71.59936523 1.45939453 71.59936523 1.78939453 71.59936523 2.12939453 C70.2520507 2.14152481 70.2520507 2.14152481 68.8775177 2.15390015 C60.36080312 2.23224646 51.84423808 2.31965353 43.32771778 2.41692162 C38.95060631 2.46660199 34.57351574 2.51293141 30.19628906 2.55126953 C25.96215493 2.58848323 21.72820879 2.63493418 17.4942379 2.68745804 C15.88897733 2.7058124 14.28367676 2.72098808 12.67835426 2.73273849 C3.11707466 2.80514645 -5.9784642 3.34240114 -15.40063477 5.12939453 C-12.55877573 8.06006166 -9.66036834 10.76305075 -6.52563477 13.37939453 C-2.15426425 17.14409196 1.22176748 21.47464262 4.59936523 26.12939453 C4.26936523 26.78939453 3.93936523 27.44939453 3.59936523 28.12939453 C0.24916668 26.73167728 -1.3067265 25.23679447 -3.33813477 22.25439453 C-5.70381726 18.93160385 -8.14778006 16.61687166 -11.40063477 14.12939453 C-11.40063477 13.46939453 -11.40063477 12.80939453 -11.40063477 12.12939453 C-11.95750977 11.88189453 -12.51438477 11.63439453 -13.08813477 11.37939453 C-15.84223955 9.89068924 -18.09237991 8.24529482 -20.40063477 6.12939453 C-20.40063477 5.13939453 -20.40063477 4.14939453 -20.40063477 3.12939453 C-13.61757135 0.64778596 -7.19317708 0.00453045 0 0 Z " transform="translate(292.400634765625,146.87060546875)" style="fill: #939493;"/><path d="M0 0 C2.61733101 0.97215152 4.93528129 1.95836356 7.2890625 3.47265625 C31.43077352 17.07411015 75.37426271 9.10173061 102 9 C102 9.33 102 9.66 102 10 C104.31 10.33 106.62 10.66 109 11 C109 11.33 109 11.66 109 12 C99.4975625 12.0466802 89.99516547 12.08204819 80.49263763 12.10362434 C76.07854616 12.1139884 71.66453408 12.1280098 67.25048828 12.15087891 C62.97754657 12.17287423 58.70468043 12.18462382 54.4316864 12.18975449 C52.8149039 12.19340302 51.19812476 12.20052482 49.58137512 12.21146011 C14.50779308 12.43889569 14.50779308 12.43889569 1 3 C0.67 2.01 0.34 1.02 0 0 Z " transform="translate(244,267)" style="fill: #9D9E9E;"/><path d="M0 0 C3.3591004 1.10552672 6.70183374 2.24618345 10.03125 3.4375 C11.52075304 3.9585629 13.01033807 4.47939151 14.5 5 C15.21414062 5.26039063 15.92828125 5.52078125 16.6640625 5.7890625 C29.5958236 10.2498442 42.95333856 10.31346837 56.4609375 10.30078125 C58.2218943 10.30468432 59.98285019 10.30902219 61.74380493 10.31376648 C65.41989195 10.32117984 69.09588289 10.32097546 72.77197266 10.31567383 C76.48954418 10.31105884 80.20678735 10.31790382 83.92431641 10.33618164 C103.34964734 10.43098804 122.4531124 10.51031639 141.67803955 7.35873413 C145.43912804 6.77766015 149.21519655 6.39392269 153 6 C132.27074782 16.64187199 103.13138398 13.35298874 80.36035156 13.31567383 C77.27947486 13.31101821 74.19899068 13.31807537 71.11816406 13.33618164 C21.58826496 13.62445036 21.58826496 13.62445036 0 2 C0 1.34 0 0.68 0 0 Z " transform="translate(231,301)" style="fill: #C1C1C1;"/><path d="M0 0 C1.52841505 0.00374115 3.05683253 0.00658289 4.58525085 0.00857544 C8.56194967 0.01612534 12.53849684 0.03569687 16.51513672 0.0579834 C20.5914505 0.07863073 24.66778936 0.08761708 28.74414062 0.09765625 C36.70840207 0.11895313 44.67254142 0.15298126 52.63671875 0.1953125 C49.46568349 2.05907269 47.1857915 2.43353083 43.52709961 2.390625 C41.9978611 2.38071533 41.9978611 2.38071533 40.43772888 2.37060547 C39.33679398 2.35400879 38.23585907 2.33741211 37.1015625 2.3203125 C35.37976524 2.30895264 35.37976524 2.30895264 33.6231842 2.29736328 C28.72248463 2.26484363 23.82212193 2.20932545 18.92163086 2.15429688 C-14.0692001 0.50509974 -14.0692001 0.50509974 -43.71875 12.4375 C-51.80805849 21.08402927 -54.5116899 33.65495704 -54.4609375 45.125 C-54.45771484 46.4140625 -54.45449219 47.703125 -54.45117188 49.03125 C-54.44281858 50.37760486 -54.43435366 51.72395902 -54.42578125 53.0703125 C-54.42075955 54.44010254 -54.41619782 55.80989435 -54.41210938 57.1796875 C-54.40035379 60.5182744 -54.38392089 63.85677065 -54.36328125 67.1953125 C-55.02328125 66.8653125 -55.68328125 66.5353125 -56.36328125 66.1953125 C-60.0878013 51.34529061 -58.67002089 31.17453519 -51.17578125 17.6953125 C-44.11715583 7.96818235 -35.25346516 3.03971454 -23.55786133 1.10595703 C-15.70534845 -0.04571633 -7.91327848 -0.05781215 0 0 Z " transform="translate(153.36328125,181.8046875)" style="fill: #AFB0B0;"/><path d="M0 0 C3.75376152 1.25125384 4.24073289 2.5652404 6 6 C6 6.66 6 7.32 6 8 C6.55693542 7.99555878 7.11387085 7.99111755 7.68768311 7.98654175 C13.59482194 7.94157116 19.50191064 7.91183547 25.40917969 7.89013672 C27.60060609 7.88020772 29.79201973 7.86666007 31.98339844 7.84912109 C82.75503824 7.45355836 82.75503824 7.45355836 94.71875 18.6015625 C97.82991431 22.06349534 100.31103924 25.62857214 102 30 C101.505 31.485 101.505 31.485 101 33 C100.60167969 32.24074219 100.20335937 31.48148438 99.79296875 30.69921875 C99.26316406 29.70535156 98.73335938 28.71148437 98.1875 27.6875 C97.66542969 26.70136719 97.14335937 25.71523437 96.60546875 24.69921875 C95.21784092 22.36624835 94.08859154 20.70265615 92 19 C90.9171875 18.7834375 90.9171875 18.7834375 89.8125 18.5625 C87.16147781 18.03229556 85.69528703 17.35313001 83.375 16.0625 C71.71362375 10.03527183 56.41955902 10.86636413 43.62890625 10.9296875 C41.32095595 10.92111617 39.01301206 10.91064513 36.70507812 10.8984375 C33.11449022 10.8816579 29.52537254 10.87525986 25.93481445 10.90039062 C22.43610846 10.92128835 18.93998708 10.89821125 15.44140625 10.8671875 C14.36742081 10.88457977 13.29343536 10.90197205 12.18690491 10.91989136 C4.98497366 10.80298688 4.98497366 10.80298688 2.14694214 8.48931885 C0.74739967 6.66585704 -0.2772567 5.18303054 -1 3 C-0.67 2.01 -0.34 1.02 0 0 Z " transform="translate(296,174)" style="fill: #B1B2B2;"/><path d="M0 0 C0.33 0 0.66 0 1 0 C1.02578125 1.13953125 1.0515625 2.2790625 1.078125 3.453125 C1.79604717 25.93921574 5.36756071 47.74697291 21 65 C24.19977419 67.87476136 27.54093617 70.44983952 31 73 C31.99 73.99 31.99 73.99 33 75 C32.01 75.495 32.01 75.495 31 76 C24.54089115 71.57516565 18.5757338 67.41373923 14 61 C13.43796875 60.22269531 12.8759375 59.44539063 12.296875 58.64453125 C2.95130953 44.89029685 -2.38734706 28.69896204 -2 12 C-1.67 12 -1.34 12 -1 12 C-0.67 8.04 -0.34 4.08 0 0 Z " transform="translate(199,226)" style="fill: #A0A1A1;"/><path d="M0 0 C7.92057392 -0.02340398 15.84113285 -0.04105549 23.76173306 -0.05181217 C27.44150979 -0.0569807 31.12126248 -0.06396539 34.80102539 -0.07543945 C74.91697328 -0.19692201 74.91697328 -0.19692201 90.5625 2.5625 C91.39201172 2.70107422 92.22152344 2.83964844 93.07617188 2.98242188 C95.05213248 3.31365227 97.02630542 3.65552422 99 4 C99 4.33 99 4.66 99 5 C98.29454544 4.93402115 97.58909088 4.8680423 96.86225891 4.80006409 C86.55402716 3.9155352 76.25780952 3.68435959 65.91796875 3.46484375 C64.00840064 3.42173928 62.09883956 3.37832265 60.18928528 3.33460999 C55.20659819 3.22137472 50.22382821 3.11233059 45.24102783 3.00421143 C40.13914305 2.89274887 35.03734973 2.77725044 29.93554688 2.66210938 C19.95711586 2.4374953 9.97859243 2.21731657 0 2 C0 1.34 0 0.68 0 0 Z " transform="translate(147,145)" style="fill: #A4A5A5;"/><path d="M0 0 C9.24479453 9.24479453 8.760352 31.18779398 9.015625 43.73339844 C8.94684251 53.71115817 7.01539223 63.51156579 4 73 C3.67 73 3.34 73 3 73 C2.77199412 67.50252486 3.04814192 62.36040975 4 56.9375 C5.08450549 49.96897533 5.19157758 43.10906892 5.1875 36.0625 C5.18814453 34.98411865 5.18878906 33.9057373 5.18945312 32.79467773 C5.13875882 25.39849364 4.92291479 18.87744656 2 12 C0.67147709 7.86681761 -0.26373848 4.35168493 0 0 Z " transform="translate(426,186)" style="fill: #939494;"/><path d="M0 0 C-2.29595193 2.59961009 -4.40815713 3.80129335 -7.625 5.0625 C-8.81996094 5.54396484 -8.81996094 5.54396484 -10.0390625 6.03515625 C-17.45892931 8.45297564 -24.27184163 9.28214284 -32.0625 9.125 C-32.92810547 9.11597656 -33.79371094 9.10695313 -34.68554688 9.09765625 C-36.79048779 9.07439723 -38.89528342 9.03854008 -41 9 C-38.33496094 6.05078125 -38.33496094 6.05078125 -35.3203125 5.59375 C-33.73863281 5.54734375 -33.73863281 5.54734375 -32.125 5.5 C-24.0005453 5.04611985 -15.87839036 3.97445327 -8.5625 0.25 C-5.31042412 -1.33637848 -3.43643348 -0.90001829 0 0 Z " transform="translate(386,269)" style="fill: #A0A1A0;"/><path d="M0 0 C8.1247493 14.8063815 4.01951038 41.51098512 -0.41796875 57.14404297 C-1.61855463 60.97242126 -3.12739117 64.45541901 -5 68 C-6.24212177 64.27363469 -5.21633388 62.69903287 -3.81005859 59.17333984 C2.93190522 41.08504513 0.29308438 18.9557961 0 0 Z " transform="translate(301,204)" style="fill: #828484;"/><path d="M0 0 C0.495 0.99 0.495 0.99 1 2 C-18.8 2 -38.6 2 -59 2 C-55.69789202 -1.30210798 -55.40468687 -1.37986362 -51.05712891 -1.46411133 C-49.55008896 -1.50348564 -49.55008896 -1.50348564 -48.01260376 -1.5436554 C-46.92821014 -1.55631943 -45.84381653 -1.56898346 -44.7265625 -1.58203125 C-43.61066742 -1.6047258 -42.49477234 -1.62742035 -41.34506226 -1.65080261 C-38.98309428 -1.69542157 -36.62097949 -1.7327687 -34.25878906 -1.76342773 C-30.6458738 -1.81221811 -27.03424045 -1.88772095 -23.421875 -1.96679688 C-21.12763148 -2.00680658 -18.83336035 -2.04526916 -16.5390625 -2.08203125 C-14.91854477 -2.11620903 -14.91854477 -2.11620903 -13.26528931 -2.15107727 C-12.25429169 -2.16156601 -11.24329407 -2.17205475 -10.20166016 -2.18286133 C-9.31580231 -2.19601883 -8.42994446 -2.20917633 -7.51724243 -2.22273254 C-4.66353344 -1.97022851 -2.56000459 -1.27413609 0 0 Z " transform="translate(201,278)" style="fill: #9B9C9C;"/><path d="M0 0 C1.30155638 2.99433202 0.94360631 4.16359943 -0.14453125 7.3203125 C-0.68953043 8.59330328 -1.24595011 9.86145306 -1.8125 11.125 C-6.2399318 21.04244723 -7.31677904 30.30638582 -7.1875 41.125 C-7.18685547 42.15753906 -7.18621094 43.19007813 -7.18554688 44.25390625 C-7.15304387 49.92387567 -6.8404936 55.39222673 -6 61 C-6.66 61 -7.32 61 -8 61 C-12.90968869 39.43243896 -10.04799315 19.56009333 0 0 Z " transform="translate(243,192)" style="fill: #878888;"/><path d="M0 0 C-3.23534132 2.15689421 -4.66603719 2.36342384 -8.453125 2.7109375 C-9.54012695 2.81889648 -10.62712891 2.92685547 -11.74707031 3.03808594 C-12.90303711 3.14926758 -14.05900391 3.26044922 -15.25 3.375 C-34.29506066 5.42056131 -51.09407681 9.42813157 -65.9140625 22.30078125 C-67.87571072 23.89875311 -69.69792089 24.97396022 -72 26 C-59.67003058 10.1008289 -40.54629853 3.84448957 -21.2421875 1.34765625 C-18.30242934 0.99351281 -15.36068294 0.68508305 -12.4140625 0.39453125 C-3.29586657 -0.65917331 -3.29586657 -0.65917331 0 0 Z " transform="translate(152,147)" style="fill: #666867;"/><path d="M0 0 C3.75376152 1.25125384 4.24073289 2.5652404 6 6 C6 6.66 6 7.32 6 8 C21.84 8 37.68 8 54 8 C54 8.33 54 8.66 54 9 C47.00270504 9.42824975 40.00527168 9.73538536 33 10 C31.75911621 10.05285156 30.51823242 10.10570312 29.23974609 10.16015625 C25.32661706 10.31240669 21.4150471 10.41166299 17.5 10.5 C15.61341675 10.58217773 15.61341675 10.58217773 13.6887207 10.66601562 C5.05684795 10.79263597 5.05684795 10.79263597 2.015625 8.51171875 C0.59375 6.65625 0.59375 6.65625 -1 3 C-0.67 2.01 -0.34 1.02 0 0 Z " transform="translate(296,174)" style="fill: #A6A7A7;"/><path d="M0 0 C0.66 0.66 1.32 1.32 2 2 C1.72285156 2.79664063 1.44570312 3.59328125 1.16015625 4.4140625 C0.79792969 5.47367188 0.43570313 6.53328125 0.0625 7.625 C-0.29714844 8.66914063 -0.65679687 9.71328125 -1.02734375 10.7890625 C-2.67014791 16.21229552 -3.1226774 21.27490699 -3.09765625 26.9296875 C-3.09443359 28.21875 -3.09121094 29.5078125 -3.08789062 30.8359375 C-3.07953733 32.18229236 -3.07107241 33.52864652 -3.0625 34.875 C-3.0574783 36.24479004 -3.05291657 37.61458185 -3.04882812 38.984375 C-3.03707254 42.3229619 -3.02063964 45.66145815 -3 49 C-3.66 48.67 -4.32 48.34 -5 48 C-8.66703262 33.37918609 -7.34962679 13.30878364 0 0 Z " transform="translate(102,200)" style="fill: #8B8D8D;"/><path d="M0 0 C22.11 0 44.22 0 67 0 C67 0.66 67 1.32 67 2 C68.65 2 70.3 2 72 2 C72 2.33 72 2.66 72 3 C69.89590361 3.02701408 67.79170822 3.04640223 65.6875 3.0625 C64.51574219 3.07410156 63.34398437 3.08570313 62.13671875 3.09765625 C59 3 59 3 56 2 C54.17534101 1.88390641 52.34692114 1.82343471 50.51879883 1.79467773 C49.39786331 1.77473251 48.2769278 1.75478729 47.12202454 1.73423767 C45.30785286 1.70916893 45.30785286 1.70916893 43.45703125 1.68359375 C42.21829758 1.66281265 40.9795639 1.64203156 39.70329285 1.62062073 C36.41374744 1.56628203 33.12417274 1.51604049 29.83453369 1.46777344 C26.47622186 1.41749354 23.11799954 1.36184139 19.75976562 1.30664062 C13.17324841 1.19946952 6.58666416 1.09769865 0 1 C0 0.67 0 0.34 0 0 Z " transform="translate(150,181)" style="fill: #848585;"/><path d="M0 0 C0.66 0.33 1.32 0.66 2 1 C1.85636473 2.37523135 1.70996483 3.75017402 1.5625 5.125 C1.48128906 5.89070312 1.40007812 6.65640625 1.31640625 7.4453125 C1.09468783 9.23548345 0.81765805 11.019263 0.5 12.79492188 C0.0253897 15.83724809 -0.20069163 18.7612347 -0.31640625 21.8359375 C-0.35830078 22.89941406 -0.40019531 23.96289062 -0.44335938 25.05859375 C-0.48267578 26.15300781 -0.52199219 27.24742187 -0.5625 28.375 C-0.60568359 29.49261719 -0.64886719 30.61023438 -0.69335938 31.76171875 C-0.79897411 34.50770199 -0.9010797 37.25376881 -1 40 C-1.99 40.495 -1.99 40.495 -3 41 C-4.38131484 26.79485685 -3.09213174 13.98038285 0 0 Z " transform="translate(63,200)" style="fill: #A7A8A8;"/><path d="M0 0 C1.32413377 2.17256021 2.04560894 3.47946314 1.8203125 6.05078125 C-0.71910532 14.31102236 -4.80547622 24.80547622 -11 31 C-13.125 30.625 -13.125 30.625 -15 30 C-14.24976563 29.14921875 -13.49953125 28.2984375 -12.7265625 27.421875 C-6.31668108 19.71556232 -2.33896214 9.6677102 0 0 Z " transform="translate(428,255)" style="fill: #858787;"/><path d="M0 0 C2.61708066 0.97205853 4.92244825 1.94932395 7.265625 3.48046875 C10.39464423 5.21930944 13.04632632 5.83998081 16.5625 6.5 C17.19293213 6.61964111 17.82336426 6.73928223 18.47290039 6.86254883 C27.2734255 8.48750481 36.14250637 9.73207452 45 11 C45 11.33 45 11.66 45 12 C30.5089897 12.55262327 13.27786834 11.57945616 1 3 C0.67 2.01 0.34 1.02 0 0 Z " transform="translate(244,267)" style="fill: #838484;"/><path d="M0 0 C0 0.66 0 1.32 0 2 C-3.59382777 3.19794259 -7.12995454 3.49170388 -10.875 3.875 C-17.50514506 4.58597906 -23.81954144 5.74990057 -30.265625 7.51171875 C-33.18455224 8.03295576 -35.15957287 7.77230592 -38 7 C-31.72648827 2.81765884 -24.26503338 2.33566658 -16.9375 1.375 C-15.48633789 1.17390625 -15.48633789 1.17390625 -14.00585938 0.96875 C-9.30474419 0.33807336 -4.75580222 -0.17643786 0 0 Z " transform="translate(146,145)" style="fill: #9E9F9E;"/><path d="M0 0 C0.75023437 0.20496094 1.50046875 0.40992188 2.2734375 0.62109375 C14.32020565 3.79209443 25.63062498 4.13811957 38 4 C38.495 4.99 38.495 4.99 39 6 C32.35597666 9.32201167 21.84213109 6.94589096 14.5625 6.25 C13.80582031 6.1883667 13.04914063 6.1267334 12.26953125 6.06323242 C7.13510993 5.51531047 4.03807511 4.25093844 0 1 C0 0.67 0 0.34 0 0 Z " transform="translate(257,267)" style="fill: #A7A8A8;"/><path d="M0 0 C0.33 0 0.66 0 1 0 C1.33 1.65 1.66 3.3 2 5 C2.33 5 2.66 5 3 5 C2.93941406 5.58523437 2.87882813 6.17046875 2.81640625 6.7734375 C1.93215415 15.83362054 1.46994898 24.91098676 1 34 C0.67 34 0.34 34 0 34 C-1.09970577 28.67602763 -1.14910863 23.53336972 -1.125 18.125 C-1.12886719 17.26519531 -1.13273438 16.40539062 -1.13671875 15.51953125 C-1.12873241 10.25653385 -0.76126755 5.20803676 0 0 Z " transform="translate(198,210)" style="fill: #969797;"/><path d="M0 0 C3.37839459 1.11540647 6.74508012 2.25815344 10.1015625 3.4375 C18.6730796 6.4153714 26.93438276 8.96900824 36 10 C31.62765316 12.91489789 28.57241003 11.63730063 23.5546875 10.765625 C15.18407398 8.96272363 7.52533757 6.05210485 0 2 C0 1.34 0 0.68 0 0 Z " transform="translate(231,301)" style="fill: #C7C8C8;"/><path d="M0 0 C17.82 0.33 35.64 0.66 54 1 C54 1.33 54 1.66 54 2 C36.51 2.33 19.02 2.66 1 3 C0.67 2.01 0.34 1.02 0 0 Z " transform="translate(137,277)" style="fill: #848585;"/><path d="M0 0 C-2.35814004 2.69833073 -4.61797706 3.88464964 -7.9375 5.1875 C-8.79214844 5.53167969 -9.64679688 5.87585938 -10.52734375 6.23046875 C-13 7 -13 7 -17 7 C-16.79296875 5.14453125 -16.79296875 5.14453125 -16 3 C-10.98707711 -0.14369741 -5.77485039 -1.82363696 0 0 Z " transform="translate(386,269)" style="fill: #AEAEAE;"/><path d="M0 0 C6.5507588 1.60961502 12.72179701 5.66216771 16.51171875 11.21484375 C17.83987038 13.45996583 19.08068129 15.55763089 20 18 C19.67 18.99 19.34 19.98 19 21 C18.60167969 20.24074219 18.20335937 19.48148438 17.79296875 18.69921875 C16.99826172 17.20841797 16.99826172 17.20841797 16.1875 15.6875 C15.66542969 14.70136719 15.14335937 13.71523437 14.60546875 12.69921875 C13.21784092 10.36624835 12.08859154 8.70265615 10 7 C9.278125 6.855625 8.55625 6.71125 7.8125 6.5625 C3.84207756 5.76841551 0.55216348 3.89507481 -3 2 C-2.01 1.34 -1.02 0.68 0 0 Z " transform="translate(378,186)" style="fill: #A7A8A8;"/><path d="M0 0 C1.06990273 2.12508202 2.12224807 4.25572301 3.1484375 6.40234375 C6.72511348 13.79490015 9.8554391 18.61583763 17 23 C16.67 23.66 16.34 24.32 16 25 C9.41992915 21.21645926 2.80774169 15.2037009 0 8 C-0.24636612 5.29982731 -0.09065666 2.71969994 0 0 Z " transform="translate(99,249)" style="fill: #8E8F8E;"/><path d="M0 0 C6.14440699 6.14440699 6.86371339 18.70211755 8 27 C7.34 27 6.68 27 6 27 C5.87882812 26.33613281 5.75765625 25.67226562 5.6328125 24.98828125 C4.76844844 20.43374752 3.84595233 16.26876476 2 12 C0.67147709 7.86681761 -0.26373848 4.35168493 0 0 Z " transform="translate(426,186)" style="fill: #9C9C9C;"/><path d="M0 0 C2.15155142 3.22732713 3.3073296 6.2302158 4.625 9.875 C5.07101563 11.08929688 5.51703125 12.30359375 5.9765625 13.5546875 C6.88782193 16.62236237 7.22829282 18.83994682 7 22 C4.48046847 18.90245829 2.8335919 15.78589187 1.25 12.125 C0.80140625 11.11695313 0.3528125 10.10890625 -0.109375 9.0703125 C-1.11153508 5.61549749 -0.84695771 3.46013212 0 0 Z " transform="translate(202,258)" style="fill: #AAABAB;"/><path d="M0 0 C3.7118808 1.27308308 5.45423121 3.53454202 7.75 6.625 C8.67039062 7.85089844 8.67039062 7.85089844 9.609375 9.1015625 C10.29773438 10.04128906 10.29773438 10.04128906 11 11 C10.67 11.66 10.34 12.32 10 13 C6.6009004 11.58738718 4.97841832 9.99544389 2.875 7 C1.32027373 4.80888319 -0.09558225 2.90441775 -2 1 C-1.34 0.67 -0.68 0.34 0 0 Z " transform="translate(286,162)" style="fill: #939494;"/><path d="M0 0 C1.97588731 3.38959747 2.5262266 6.50842372 3.0625 10.375 C3.21847656 11.47585937 3.37445313 12.57671875 3.53515625 13.7109375 C3.68855469 14.79632813 3.84195313 15.88171875 4 17 C4.32739166 19.00098121 4.65883575 21.00132092 5 23 C4.34 23.33 3.68 23.66 3 24 C1.50917387 19.82946108 0.49937947 15.81183769 -0.1875 11.4375 C-0.36667969 10.34308594 -0.54585937 9.24867188 -0.73046875 8.12109375 C-0.98919505 5.12511816 -0.7590144 2.89071442 0 0 Z " transform="translate(61,240)" style="fill: #B9B9B9;"/><path d="M0 0 C4.12971061 7.51991246 3.13089891 16.72309496 3.0625 25.0625 C3.05798828 26.11888672 3.05347656 27.17527344 3.04882812 28.26367188 C3.03715918 30.84250908 3.02078885 33.42122294 3 36 C2.67 36 2.34 36 2 36 C1.97494385 35.34926514 1.9498877 34.69853027 1.92407227 34.02807617 C1.80806298 31.08101954 1.68535885 28.1342787 1.5625 25.1875 C1.52318359 24.16333984 1.48386719 23.13917969 1.44335938 22.08398438 C1.40146484 21.10107422 1.35957031 20.11816406 1.31640625 19.10546875 C1.26141968 17.74651489 1.26141968 17.74651489 1.20532227 16.36010742 C1.0791795 13.84951218 1.0791795 13.84951218 0 11 C-0.0685495 9.10529184 -0.08480372 7.2083166 -0.0625 5.3125 C-0.05347656 4.31863281 -0.04445313 3.32476562 -0.03515625 2.30078125 C-0.02355469 1.54152344 -0.01195312 0.78226563 0 0 Z " transform="translate(301,204)" style="fill: #A2A3A3;"/><path d="M0 0 C-0.33 0.66 -0.66 1.32 -1 2 C-6.1856681 3.08034752 -11.71967697 3.60375787 -17 3 C-17.99 2.34 -18.98 1.68 -20 1 C-13.34362157 -0.23839599 -6.7528064 -0.09139136 0 0 Z " transform="translate(298,147)" style="fill: #A7A8A8;"/><path d="M0 0 C3.28782031 1.52921875 6.16292916 3.41328741 9.125 5.5 C9.99382812 6.1084375 10.86265625 6.716875 11.7578125 7.34375 C14 9 14 9 16 11 C11.17850965 11 9.82204576 9.80803362 6 7 C5.071875 6.319375 4.14375 5.63875 3.1875 4.9375 C1 3 1 3 0 0 Z " transform="translate(81,292)" style="fill: #BABABA;"/><path d="M0 0 C0.33 0 0.66 0 1 0 C1.06058594 1.27875 1.12117187 2.5575 1.18359375 3.875 C1.26807216 5.5833411 1.35271641 7.29167401 1.4375 9 C1.47681641 9.83917969 1.51613281 10.67835938 1.55664062 11.54296875 C1.81851332 16.74013458 2.2899352 21.84457153 3 27 C2.34 27 1.68 27 1 27 C-0.0394775 23.8815675 -0.11494838 21.72524414 -0.09765625 18.45703125 C-0.09443359 17.38388672 -0.09121094 16.31074219 -0.08789062 15.20507812 C-0.07951172 14.08552734 -0.07113281 12.96597656 -0.0625 11.8125 C-0.05798828 10.68134766 -0.05347656 9.55019531 -0.04882812 8.38476562 C-0.03703498 5.58979073 -0.0205765 2.7949218 0 0 Z " transform="translate(234,226)" style="fill: #919292;"/><path d="M0 0 C3 1 3 1 4.6875 3.3125 C6 6 6 6 6 10 C2.19118361 8.55527654 0.70257114 6.67396929 -1 3 C-0.67 2.01 -0.34 1.02 0 0 Z " transform="translate(296,174)" style="fill: #9E9F9F;"/><path d="M0 0 C0.98613281 0.03480469 1.97226562 0.06960938 2.98828125 0.10546875 C3.98214844 0.13253906 4.97601563 0.15960938 6 0.1875 C7.13888672 0.23970703 7.13888672 0.23970703 8.30078125 0.29296875 C7.97078125 1.28296875 7.64078125 2.27296875 7.30078125 3.29296875 C3.01078125 3.29296875 -1.27921875 3.29296875 -5.69921875 3.29296875 C-2.69921875 0.29296875 -2.69921875 0.29296875 0 0 Z " transform="translate(350.69921875,274.70703125)" style="fill: #A9AAAA;"/><path d="M0 0 C0.99 0.33 1.98 0.66 3 1 C3.33 3.97 3.66 6.94 4 10 C2.515 10.99 2.515 10.99 1 12 C1 10.02 1 8.04 1 6 C0.34 6 -0.32 6 -1 6 C-0.67 4.02 -0.34 2.04 0 0 Z " transform="translate(266,212)" style="fill: #979898;"/><path d="M0 0 C0.88751953 0.30744141 0.88751953 0.30744141 1.79296875 0.62109375 C5.83660816 1.9997571 9.76855249 3.31750847 14 4 C11 6 11 6 7.5625 5.875 C3.74751124 4.93798522 2.38248004 4.04957445 0 1 C0 0.67 0 0.34 0 0 Z " transform="translate(115,271)" style="fill: #989999;"/><path d="M0 0 C0.99 0 1.98 0 3 0 C2.67 2.97 2.34 5.94 2 9 C1.01 9 0.02 9 -1 9 C-2.25541557 5.23375329 -1.37061958 3.62811066 0 0 Z " transform="translate(267,237)" style="fill: #898A89;"/><path d="M0 0 C-2.3797234 2.3797234 -3.74424795 2.58749232 -7 3.25 C-7.886875 3.44078125 -8.77375 3.6315625 -9.6875 3.828125 C-10.450625 3.88484375 -11.21375 3.9415625 -12 4 C-12.66 3.34 -13.32 2.68 -14 2 C-12.42085985 1.46658816 -10.83645613 0.94874237 -9.25 0.4375 C-8.36828125 0.14746094 -7.4865625 -0.14257812 -6.578125 -0.44140625 C-3.92165684 -1.01697435 -2.52968894 -0.89248371 0 0 Z " transform="translate(122,149)" style="fill: #AAABAB;"/><path d="M0 0 C0.66 0.33 1.32 0.66 2 1 C-0.45627573 3.631724 -2.55352037 5.81527263 -6 7 C-8.25 6.625 -8.25 6.625 -10 6 C-8.68 5.67 -7.36 5.34 -6 5 C-6 4.34 -6 3.68 -6 3 C-4.03533587 1.93224776 -2.03144641 0.93446535 0 0 Z " transform="translate(394,300)" style="fill: #A1A2A2;"/><path d="M0 0 C-2.2008849 2.47859908 -4.06372969 3.61210366 -7.1875 4.6875 C-8.26064453 5.06455078 -8.26064453 5.06455078 -9.35546875 5.44921875 C-9.89816406 5.63097656 -10.44085938 5.81273437 -11 6 C-11 5.01 -11 4.02 -11 3 C-7.14243493 0.84694043 -4.44870215 -0.39253254 0 0 Z " transform="translate(110,152)" style="fill: #999999;"/><path d="M0 0 C3 0 3 0 5.4375 2.3125 C6.283125 3.199375 7.12875 4.08625 8 5 C9.31175986 6.02813611 10.6369893 7.04084432 12 8 C11.67 8.66 11.34 9.32 11 10 C6.32751069 7.17477391 3.34003602 4.32239956 0 0 Z " transform="translate(104,264)" style="fill: #838484;"/><path d="M0 0 C0.66 0 1.32 0 2 0 C0.47291037 3.43595166 -1.59927045 6.11912454 -4 9 C-4.99 8.67 -5.98 8.34 -7 8 C-5.88200014 6.66079162 -4.75538103 5.32877444 -3.625 4 C-2.68527344 2.88625 -2.68527344 2.88625 -1.7265625 1.75 C-1.15679687 1.1725 -0.58703125 0.595 0 0 Z " transform="translate(83,166)" style="fill: #989999;"/><path d="M0 0 C1.33333333 1.33333333 2.66666667 2.66666667 4 4 C4.9075 4.86625 5.815 5.7325 6.75 6.625 C9 9 9 9 9 11 C6.50638429 9.79618552 4.31856917 8.54571278 2 7 C2 6.01 2 5.02 2 4 C1.34 4 0.68 4 0 4 C0 2.68 0 1.36 0 0 Z " transform="translate(206,286)" style="fill: #818282;"/><path d="M0 0 C3.63559661 3.43361902 6.36113346 6.7973607 9 11 C8.01 11 7.02 11 6 11 C3 7.66666667 3 7.66666667 3 5 C2.34 5 1.68 5 1 5 C0.67 3.35 0.34 1.7 0 0 Z " transform="translate(73,281)" style="fill: #CDCDCD;"/><path d="M0 0 C3.60236433 1.33802104 6.7314358 2.98857588 10 5 C11.32608822 5.68096422 12.65686601 6.35330586 14 7 C5.12198685 6.247626 5.12198685 6.247626 1 3 C0.67 2.01 0.34 1.02 0 0 Z " transform="translate(244,267)" style="fill: #9FA0A0;"/><path d="M0 0 C0.66 0.66 1.32 1.32 2 2 C0.68 5.96 -0.64 9.92 -2 14 C-2.33 14 -2.66 14 -3 14 C-3.34615998 8.34605369 -2.43425238 4.96993194 0 0 Z " transform="translate(102,200)" style="fill: #989999;"/><path d="M0 0 C0.99 0.33 1.98 0.66 3 1 C1.35 3.31 -0.3 5.62 -2 8 C-2.99 7.67 -3.98 7.34 -5 7 C-3.35 4.69 -1.7 2.38 0 0 Z " transform="translate(75,175)" style="fill: #AFB0B0;"/><path d="M0 0 C0 0.66 0 1.32 0 2 C-3.92296433 3.30765478 -6.86002433 3.1971417 -11 3 C-11.66 2.34 -12.32 1.68 -13 1 C-8.61414671 0.29826347 -4.44209357 -0.10834375 0 0 Z " transform="translate(146,145)" style="fill: #A9AAAA;"/><path d="M0 0 C2.6486859 3.19668988 4.93992341 6.39486597 7 10 C6.01 10 5.02 10 4 10 C1.09677182 6.35022743 0 4.74147821 0 0 Z " transform="translate(209,277)" style="fill: #999A9A;"/><path d="M0 0 C1.7704101 3.36668151 2.68100753 6.17209033 3 10 C2.0625 12.375 2.0625 12.375 1 14 C-0.04976964 10.85069107 -0.10131595 8.61185544 -0.0625 5.3125 C-0.05347656 4.31863281 -0.04445313 3.32476562 -0.03515625 2.30078125 C-0.02355469 1.54152344 -0.01195312 0.78226563 0 0 Z " transform="translate(301,204)" style="fill: #959696;"/><path d="M0 0 C1.46067199 0.45082469 2.91848032 0.91093537 4.375 1.375 C5.18710938 1.63023437 5.99921875 1.88546875 6.8359375 2.1484375 C9 3 9 3 11 5 C8 6 8 6 5 5 C5 4.34 5 3.68 5 3 C3.68 3 2.36 3 1 3 C0.67 2.01 0.34 1.02 0 0 Z " transform="translate(96,303)" style="fill: #D0D0D0;"/><path d="M0 0 C0.33 0.66 0.66 1.32 1 2 C-4.75 3.125 -4.75 3.125 -7 2 C-7 2.66 -7 3.32 -7 4 C-7.66 4 -8.32 4 -9 4 C-9 3.01 -9 2.02 -9 1 C-5.8035914 -0.06546953 -3.34252724 -0.07427838 0 0 Z " transform="translate(281,149)" style="fill: #99999A;"/><path d="M0 0 C0 0.66 0 1.32 0 2 C-3.96 3.98 -3.96 3.98 -8 6 C-6.15596224 0.86303767 -5.73213298 0 0 0 Z " transform="translate(402,298)" style="fill: #999A9A;"/><path d="M0 0 C2.64465038 3.1254959 3.84414715 6.08788267 5 10 C4.01 10.495 4.01 10.495 3 11 C0 4.5 0 4.5 0 0 Z " transform="translate(293,182)" style="fill: #757777;"/><path d="M0 0 C3.37503669 1.1858237 5.64722731 2.27573689 8 5 C7.01 5.495 7.01 5.495 6 6 C3.96166576 4.7260411 1.96147874 3.38938077 0 2 C0 1.34 0 0.68 0 0 Z " transform="translate(224,296)" style="fill: #A9AAAA;"/><path d="M0 0 C0.99 0.33 1.98 0.66 3 1 C3.6875 3.0625 3.6875 3.0625 4 5 C2.35 5.66 0.7 6.32 -1 7 C-0.67 4.69 -0.34 2.38 0 0 Z " transform="translate(264,244)" style="fill: #A2A3A3;"/></svg>